<?xml version="1.0" encoding="UTF-8"?> <svg xmlns="http://www.w3.org/2000/svg" width="88" height="32" viewBox="0 0 88 32" fill="none"> <path fill-rule="evenodd" clip-rule="evenodd" d="M8.06504 19.8186C8.33719 19.4778 18.4091 9.45407 18.8854 8.97663C19.3616 8.49931 18.8854 8.22656 18.477 8.22656C18.0688 8.22656 16.2993 8.29475 15.9592 8.29475C15.787 8.30951 15.6196 8.35941 15.4675 8.44158C15.3153 8.52361 15.1816 8.63621 15.0744 8.77207C14.8703 8.90857 7.92932 15.8639 7.79275 16.0006C7.6562 16.1374 7.38447 16.4087 7.38447 16.8185V19.4096C7.38447 19.8187 7.72476 20.1597 8.06504 19.8188V19.8186ZM23.8534 9.18119C23.3769 9.04482 22.2201 8.70388 21.8118 8.70388C21.4037 8.70388 21.1314 8.9765 20.9953 9.11287L8.06504 22.0689C7.8465 22.2044 7.66812 22.3959 7.54844 22.6239C7.42876 22.8517 7.37214 23.1074 7.38447 23.3646C7.38447 24.1828 7.5206 24.3873 7.58861 25.1374C7.65662 25.8876 8.2692 25.8194 8.74549 25.4102L24.2616 9.8632C24.534 9.59032 24.3298 9.31757 23.8534 9.18119ZM26.9838 13.4772C27.2565 13.1806 27.4031 12.7891 27.3922 12.3861V10.6813C27.3922 10.1358 26.6436 9.79488 26.0311 10.3404L9.90237 26.5012C9.28993 27.1148 9.49407 27.5923 9.90237 27.8649C10.3107 28.1377 10.5148 28.4104 11.1274 28.6832C11.74 28.9559 11.944 28.5468 12.0801 28.4104L26.9838 13.4772ZM26.5074 16.2048C26.1671 16.5456 13.8495 28.8203 13.4411 29.297C12.9647 29.7743 13.1691 30.1152 13.5091 30.3198C13.8493 30.5242 14.8022 31.1379 15.2105 31.1379C15.6187 31.1379 15.7549 31.0699 15.8911 30.9334L26.9163 19.8869C27.0525 19.7504 27.3247 19.4778 27.3247 19.0687V16.4778C27.3922 16.0001 26.9838 15.7274 26.5074 16.2048ZM26.6436 22.2055C26.0311 22.7508 18.0008 30.8658 17.5918 31.2064C17.1835 31.6155 17.1835 32.161 17.864 31.9564C18.5446 31.6838 27.3234 28.0015 27.3234 24.2511V22.6146C27.3241 22.0008 26.9838 21.7962 26.6436 22.2055Z" fill="#F52D37"></path> <path fill-rule="evenodd" clip-rule="evenodd" d="M7.43756 0L23.0873 0.454766L20.5558 5.22271L22.5917 8.80816C22.5917 8.80816 18.0785 9.2278 14.0275 11.6059C9.97659 13.984 7.36257 17.7483 7.36257 17.7483L5.32668 14.1629L3.10192 14.0982V17.0074C3.44526 17.163 3.68459 17.513 3.68459 17.9199C3.68459 18.4714 3.24492 18.9184 2.70257 18.9184C2.16021 18.9184 1.72055 18.4714 1.72055 17.9199C1.72055 17.5079 1.96598 17.1541 2.31631 17.0016V14.0754L0 14.0081L7.43756 0ZM13.3845 6.31013C15.8605 5.26005 18.2796 4.91175 19.4877 4.79773C19.9906 4.75026 20.2837 4.74339 20.2837 4.74339L19.844 3.96915C19.844 3.96915 15.155 4.07909 11.104 6.45718C7.0531 8.83527 4.61493 12.9093 4.61493 12.9093L5.05454 13.6836C5.06084 13.673 7.49794 9.60643 11.5436 7.23142C12.149 6.87608 12.7685 6.57139 13.3845 6.31013Z" fill="#151515"></path> <path d="M87.492 6.39844H78.7681C78.6332 6.39844 78.5051 6.45207 78.4107 6.54594L76.3191 8.62602C76.2129 8.73161 76.2887 8.91263 76.4388 8.91263H80.4131C80.5985 8.91263 80.7502 9.06349 80.7502 9.24786V15.9524C80.7502 16.2306 80.976 16.4552 81.2558 16.4552H82.7727C83.0525 16.4552 83.2783 16.2306 83.2783 15.9524V9.24786C83.2783 9.06349 83.43 8.91263 83.6154 8.91263H87.492C87.7718 8.91263 87.9976 8.68803 87.9976 8.40979V6.90128C87.9976 6.62304 87.7718 6.39844 87.492 6.39844Z" fill="#151515"></path> <path d="M76.2972 6.39844H73.3376C73.2027 6.39844 73.0747 6.45207 72.9803 6.54594L66.5907 12.9001V6.90128C66.5907 6.62304 66.3648 6.39844 66.0851 6.39844H64.5681C64.2884 6.39844 64.0625 6.62304 64.0625 6.90128V15.9524C64.0625 16.2306 64.2884 16.4552 64.5681 16.4552H66.3817C66.5165 16.4552 66.6446 16.4016 66.739 16.3077L69.6211 13.4415C69.7526 13.3108 69.9667 13.3108 70.0981 13.4415L72.9803 16.3077C73.0747 16.4016 73.2044 16.4552 73.3376 16.4552H76.2972C76.4473 16.4552 76.5231 16.2742 76.4169 16.1686L71.6471 11.4268L76.4152 6.68506C76.5214 6.57946 76.4473 6.39844 76.2972 6.39844Z" fill="#151515"></path> <path d="M35.076 14.7791H40.1323C40.3177 14.7791 40.4694 14.9299 40.4694 15.1143V15.9524C40.4694 16.2306 40.6953 16.4552 40.9751 16.4552H42.492C42.7718 16.4552 42.9976 16.2306 42.9976 15.9524V15.1143C42.9976 14.9299 43.1493 14.7791 43.3347 14.7791H48.3911C48.6709 14.7791 48.8967 14.5545 48.8967 14.2763V6.90128C48.8967 6.62304 48.6709 6.39844 48.3911 6.39844H35.076C34.7962 6.39844 34.5703 6.62304 34.5703 6.90128V14.2763C34.5703 14.5545 34.7962 14.7791 35.076 14.7791ZM43.6718 8.91263H45.6943C46.0668 8.91263 46.3685 9.21266 46.3685 9.58309V11.5944C46.3685 11.9649 46.0668 12.2649 45.6943 12.2649H43.6718C43.2993 12.2649 42.9976 11.9649 42.9976 11.5944V9.58309C42.9976 9.21266 43.2993 8.91263 43.6718 8.91263ZM37.7727 8.91263H39.7952C40.1677 8.91263 40.4694 9.21266 40.4694 9.58309V11.5944C40.4694 11.9649 40.1677 12.2649 39.7952 12.2649H37.7727C37.4002 12.2649 37.0985 11.9649 37.0985 11.5944V9.58309C37.0985 9.21266 37.4002 8.91263 37.7727 8.91263Z" fill="#151515"></path> <path d="M50.582 15.9524C50.582 16.2306 50.8079 16.4552 51.0877 16.4552H52.6046C52.8844 16.4552 53.1102 16.2306 53.1102 15.9524V15.1143C53.1102 14.9299 53.2619 14.7791 53.4473 14.7791H59.515C59.7004 14.7791 59.8521 14.9299 59.8521 15.1143V15.9524C59.8521 16.2306 60.0779 16.4552 60.3577 16.4552H61.8746C62.1544 16.4552 62.3802 16.2306 62.3802 15.9524V6.90128C62.3802 6.62304 62.1544 6.39844 61.8746 6.39844H51.0877C50.8079 6.39844 50.582 6.62304 50.582 6.90128V15.9524ZM53.7844 8.91263H59.1779C59.5504 8.91263 59.8521 9.21266 59.8521 9.58309V11.5944C59.8521 11.9649 59.5504 12.2649 59.1779 12.2649H53.7844C53.4119 12.2649 53.1102 11.9649 53.1102 11.5944V9.58309C53.1102 9.21266 53.4119 8.91263 53.7844 8.91263Z" fill="#151515"></path> <path d="M38.891 24.6692C38.8115 24.6692 38.7395 24.6221 38.7077 24.5493L38.2154 23.4218H35.998L35.4834 24.5521C35.4509 24.6235 35.3798 24.6692 35.3014 24.6692H34.8898C34.7431 24.6692 34.6463 24.5165 34.709 24.3838L36.8793 19.7879C36.9887 19.5563 37.3192 19.5594 37.4242 19.793L39.4892 24.3873C39.5486 24.5196 39.4518 24.6692 39.3067 24.6692H38.891ZM36.3248 22.678H37.8964L37.1262 20.927L36.3248 22.678Z" fill="#151515"></path> <path d="M40.1314 21.6074C40.1314 21.4969 40.2209 21.4074 40.3314 21.4074H40.6938C40.8043 21.4074 40.8938 21.4969 40.8938 21.6074V22.5696L41.9238 21.4706C41.9616 21.4303 42.0145 21.4074 42.0697 21.4074H42.5103C42.6886 21.4074 42.7778 21.6232 42.6514 21.7491L41.5629 22.833L42.8035 24.3422C42.9108 24.4727 42.818 24.6692 42.649 24.6692H42.2028C42.1425 24.6692 42.0855 24.6421 42.0475 24.5954L41.0183 23.3289L40.8938 23.4528V24.4692C40.8938 24.5797 40.8043 24.6692 40.6938 24.6692H40.3314C40.2209 24.6692 40.1314 24.5797 40.1314 24.4692V21.6074Z" fill="#151515"></path> <path d="M45.9696 21.787V21.6074C45.9696 21.4969 46.0592 21.4074 46.1696 21.4074H46.5321C46.6426 21.4074 46.7321 21.4969 46.7321 21.6074V24.4692C46.7321 24.5797 46.6426 24.6692 46.5321 24.6692H46.1696C46.0592 24.6692 45.9696 24.5797 45.9696 24.4692V24.3283C45.7155 24.6228 45.3887 24.77 44.9893 24.77C44.5069 24.77 44.1205 24.5995 43.83 24.2586C43.5447 23.9177 43.4021 23.5096 43.4021 23.0344C43.4021 22.5179 43.5551 22.1047 43.8611 21.7948C44.1724 21.4797 44.551 21.3221 44.9971 21.3221C45.4068 21.3221 45.731 21.4771 45.9696 21.787ZM45.0904 22.004C44.8207 22.004 44.6003 22.1047 44.4291 22.3061C44.2631 22.5076 44.1801 22.7555 44.1801 23.0499C44.1801 23.3392 44.2631 23.5845 44.4291 23.786C44.6003 23.9874 44.8207 24.0881 45.0904 24.0881C45.3498 24.0881 45.5676 23.9978 45.744 23.817C45.9255 23.6362 46.0163 23.3831 46.0163 23.0577C46.0163 22.7219 45.9255 22.4637 45.744 22.2829C45.5676 22.0969 45.3498 22.004 45.0904 22.004Z" fill="#151515"></path> <path d="M47.9791 21.6074C47.9791 21.4969 48.0686 21.4074 48.1791 21.4074H50.2377C50.3481 21.4074 50.4377 21.4969 50.4377 21.6074V23.9719H50.7356C50.8461 23.9719 50.9356 24.0615 50.9356 24.1719V25.399C50.9356 25.5094 50.8461 25.599 50.7356 25.599H50.4354C50.3249 25.599 50.2354 25.5094 50.2354 25.399V24.6692H47.948V25.399C47.948 25.5094 47.8584 25.599 47.748 25.599H47.4477C47.3373 25.599 47.2477 25.5094 47.2477 25.399V24.1606C47.2477 24.0546 47.3322 23.9709 47.4326 23.9371C47.6073 23.8782 47.7454 23.7478 47.8468 23.5458C47.935 23.3547 47.9791 23.068 47.9791 22.6858V21.6074ZM49.6752 23.9719V22.1047H48.7104V22.9725C48.7104 23.4425 48.5834 23.7757 48.3292 23.9719H49.6752Z" fill="#151515"></path> <path d="M53.6676 23.7328C53.7356 23.6469 53.855 23.612 53.9506 23.6655L54.2409 23.8276C54.3375 23.8816 54.373 24.0047 54.3091 24.095C54.1836 24.2725 54.0351 24.4148 53.8636 24.522C53.6094 24.6873 53.2879 24.77 52.8988 24.77C52.4424 24.77 52.0741 24.6305 51.794 24.3516C51.4724 24.0313 51.3116 23.6155 51.3116 23.1042C51.3116 22.567 51.4854 22.1202 51.8329 21.7638C52.1286 21.4694 52.4943 21.3221 52.93 21.3221C53.3553 21.3221 53.7054 21.4642 53.9803 21.7483C54.2863 22.0634 54.4394 22.5231 54.4394 23.1274C54.4394 23.1788 54.3977 23.2204 54.3464 23.2204H52.0897C52.1104 23.4941 52.2038 23.7137 52.3698 23.879C52.5098 24.0184 52.7043 24.0881 52.9533 24.0881C53.1556 24.0881 53.3294 24.0339 53.4746 23.9254C53.5453 23.8703 53.6097 23.8061 53.6676 23.7328ZM52.1441 22.6006H53.6613C53.6302 22.4198 53.5524 22.2726 53.4279 22.1589C53.293 22.035 53.1219 21.973 52.9144 21.973C52.6966 21.973 52.5176 22.0427 52.3776 22.1822C52.2634 22.2855 52.1856 22.4249 52.1441 22.6006Z" fill="#151515"></path> <path d="M55.1123 24.6692C54.9843 24.6692 54.8892 24.5506 54.9171 24.4257L55.4823 21.8932C55.5426 21.6227 55.9061 21.5717 56.0386 21.8151L57.0102 23.6L57.9818 21.8151C58.1143 21.5717 58.4777 21.6227 58.5381 21.8932L59.1168 24.4866C59.1377 24.5803 59.0664 24.6692 58.9704 24.6692H58.5435C58.4481 24.6692 58.3661 24.6019 58.3474 24.5084L58.0527 23.0344L57.2726 24.4432C57.1584 24.6495 56.8619 24.6495 56.7477 24.4432L55.9676 23.0344L55.673 24.5084C55.6543 24.6019 55.5722 24.6692 55.4768 24.6692H55.1123Z" fill="#151515"></path> <path d="M59.7495 21.6074C59.7495 21.4969 59.839 21.4074 59.9495 21.4074H60.3119C60.4224 21.4074 60.5119 21.4969 60.5119 21.6074V23.2591L62.1606 21.6801C62.3832 21.4669 62.7527 21.6246 62.7527 21.9328V24.4692C62.7527 24.5797 62.6632 24.6692 62.5527 24.6692H62.1902C62.0798 24.6692 61.9902 24.5797 61.9902 24.4692V22.771L60.0032 24.6741C59.9078 24.7655 59.7495 24.6979 59.7495 24.5658V21.6074Z" fill="#151515"></path> <path d="M63.7096 24.6692C63.5422 24.6692 63.4489 24.476 63.5529 24.3449L64.3225 23.3753C64.1202 23.3443 63.9465 23.2617 63.8012 23.1274C63.6197 22.9518 63.5289 22.7271 63.5289 22.4533C63.5289 22.1434 63.6301 21.8929 63.8323 21.7018C64.0398 21.5055 64.3562 21.4074 64.7815 21.4074H65.8031C65.9135 21.4074 66.0031 21.4969 66.0031 21.6074V24.4692C66.0031 24.5797 65.9135 24.6692 65.8031 24.6692H65.4406C65.3301 24.6692 65.2406 24.5797 65.2406 24.4692V23.4683H65.085L64.2502 24.5887C64.2125 24.6394 64.153 24.6692 64.0898 24.6692H63.7096ZM65.2406 22.8485V22.0582H64.7971C64.6156 22.0582 64.4833 22.0814 64.4003 22.1279C64.2758 22.2054 64.2136 22.3139 64.2136 22.4533C64.2136 22.5928 64.2654 22.6987 64.3692 22.771C64.447 22.8227 64.587 22.8485 64.7893 22.8485H65.2406Z" fill="#151515"></path> <path d="M38.891 24.6692C38.8115 24.6692 38.7395 24.6221 38.7077 24.5493L38.2154 23.4218H35.998L35.4834 24.5521C35.4509 24.6235 35.3798 24.6692 35.3014 24.6692H34.8898C34.7431 24.6692 34.6463 24.5165 34.709 24.3838L36.8793 19.7879C36.9887 19.5563 37.3192 19.5594 37.4242 19.793L39.4892 24.3873C39.5486 24.5196 39.4518 24.6692 39.3067 24.6692H38.891ZM36.3248 22.678H37.8964L37.1262 20.927L36.3248 22.678Z" stroke="#151515" stroke-width="0.2"></path> <path d="M40.1314 21.6074C40.1314 21.4969 40.2209 21.4074 40.3314 21.4074H40.6938C40.8043 21.4074 40.8938 21.4969 40.8938 21.6074V22.5696L41.9238 21.4706C41.9616 21.4303 42.0145 21.4074 42.0697 21.4074H42.5103C42.6886 21.4074 42.7778 21.6232 42.6514 21.7491L41.5629 22.833L42.8035 24.3422C42.9108 24.4727 42.818 24.6692 42.649 24.6692H42.2028C42.1425 24.6692 42.0855 24.6421 42.0475 24.5954L41.0183 23.3289L40.8938 23.4528V24.4692C40.8938 24.5797 40.8043 24.6692 40.6938 24.6692H40.3314C40.2209 24.6692 40.1314 24.5797 40.1314 24.4692V21.6074Z" stroke="#151515" stroke-width="0.2"></path> <path d="M45.9696 21.787V21.6074C45.9696 21.4969 46.0592 21.4074 46.1696 21.4074H46.5321C46.6426 21.4074 46.7321 21.4969 46.7321 21.6074V24.4692C46.7321 24.5797 46.6426 24.6692 46.5321 24.6692H46.1696C46.0592 24.6692 45.9696 24.5797 45.9696 24.4692V24.3283C45.7155 24.6228 45.3887 24.77 44.9893 24.77C44.5069 24.77 44.1205 24.5995 43.83 24.2586C43.5447 23.9177 43.4021 23.5096 43.4021 23.0344C43.4021 22.5179 43.5551 22.1047 43.8611 21.7948C44.1724 21.4797 44.551 21.3221 44.9971 21.3221C45.4068 21.3221 45.731 21.4771 45.9696 21.787ZM45.0904 22.004C44.8207 22.004 44.6003 22.1047 44.4291 22.3061C44.2631 22.5076 44.1801 22.7555 44.1801 23.0499C44.1801 23.3392 44.2631 23.5845 44.4291 23.786C44.6003 23.9874 44.8207 24.0881 45.0904 24.0881C45.3498 24.0881 45.5676 23.9978 45.744 23.817C45.9255 23.6362 46.0163 23.3831 46.0163 23.0577C46.0163 22.7219 45.9255 22.4637 45.744 22.2829C45.5676 22.0969 45.3498 22.004 45.0904 22.004Z" stroke="#151515" stroke-width="0.2"></path> <path d="M47.9791 21.6074C47.9791 21.4969 48.0686 21.4074 48.1791 21.4074H50.2377C50.3481 21.4074 50.4377 21.4969 50.4377 21.6074V23.9719H50.7356C50.8461 23.9719 50.9356 24.0615 50.9356 24.1719V25.399C50.9356 25.5094 50.8461 25.599 50.7356 25.599H50.4354C50.3249 25.599 50.2354 25.5094 50.2354 25.399V24.6692H47.948V25.399C47.948 25.5094 47.8584 25.599 47.748 25.599H47.4477C47.3373 25.599 47.2477 25.5094 47.2477 25.399V24.1606C47.2477 24.0546 47.3322 23.9709 47.4326 23.9371C47.6073 23.8782 47.7454 23.7478 47.8468 23.5458C47.935 23.3547 47.9791 23.068 47.9791 22.6858V21.6074ZM49.6752 23.9719V22.1047H48.7104V22.9725C48.7104 23.4425 48.5834 23.7757 48.3292 23.9719H49.6752Z" stroke="#151515" stroke-width="0.2"></path> <path d="M53.6676 23.7328C53.7356 23.6469 53.855 23.612 53.9506 23.6655L54.2409 23.8276C54.3375 23.8816 54.373 24.0047 54.3091 24.095C54.1836 24.2725 54.0351 24.4148 53.8636 24.522C53.6094 24.6873 53.2879 24.77 52.8988 24.77C52.4424 24.77 52.0741 24.6305 51.794 24.3516C51.4724 24.0313 51.3116 23.6155 51.3116 23.1042C51.3116 22.567 51.4854 22.1202 51.8329 21.7638C52.1286 21.4694 52.4943 21.3221 52.93 21.3221C53.3553 21.3221 53.7054 21.4642 53.9803 21.7483C54.2863 22.0634 54.4394 22.5231 54.4394 23.1274C54.4394 23.1788 54.3977 23.2204 54.3464 23.2204H52.0897C52.1104 23.4941 52.2038 23.7137 52.3698 23.879C52.5098 24.0184 52.7043 24.0881 52.9533 24.0881C53.1556 24.0881 53.3294 24.0339 53.4746 23.9254C53.5453 23.8703 53.6097 23.8061 53.6676 23.7328ZM52.1441 22.6006H53.6613C53.6302 22.4198 53.5524 22.2726 53.4279 22.1589C53.293 22.035 53.1219 21.973 52.9144 21.973C52.6966 21.973 52.5176 22.0427 52.3776 22.1822C52.2634 22.2855 52.1856 22.4249 52.1441 22.6006Z" stroke="#151515" stroke-width="0.2"></path> <path d="M55.1123 24.6692C54.9843 24.6692 54.8892 24.5506 54.9171 24.4257L55.4823 21.8932C55.5426 21.6227 55.9061 21.5717 56.0386 21.8151L57.0102 23.6L57.9818 21.8151C58.1143 21.5717 58.4777 21.6227 58.5381 21.8932L59.1168 24.4866C59.1377 24.5803 59.0664 24.6692 58.9704 24.6692H58.5435C58.4481 24.6692 58.3661 24.6019 58.3474 24.5084L58.0527 23.0344L57.2726 24.4432C57.1584 24.6495 56.8619 24.6495 56.7477 24.4432L55.9676 23.0344L55.673 24.5084C55.6543 24.6019 55.5722 24.6692 55.4768 24.6692H55.1123Z" stroke="#151515" stroke-width="0.2"></path> <path d="M59.7495 21.6074C59.7495 21.4969 59.839 21.4074 59.9495 21.4074H60.3119C60.4224 21.4074 60.5119 21.4969 60.5119 21.6074V23.2591L62.1606 21.6801C62.3832 21.4669 62.7527 21.6246 62.7527 21.9328V24.4692C62.7527 24.5797 62.6632 24.6692 62.5527 24.6692H62.1902C62.0798 24.6692 61.9902 24.5797 61.9902 24.4692V22.771L60.0032 24.6741C59.9078 24.7655 59.7495 24.6979 59.7495 24.5658V21.6074Z" stroke="#151515" stroke-width="0.2"></path> <path d="M63.7096 24.6692C63.5422 24.6692 63.4489 24.476 63.5529 24.3449L64.3225 23.3753C64.1202 23.3443 63.9465 23.2617 63.8012 23.1274C63.6197 22.9518 63.5289 22.7271 63.5289 22.4533C63.5289 22.1434 63.6301 21.8929 63.8323 21.7018C64.0398 21.5055 64.3562 21.4074 64.7815 21.4074H65.8031C65.9135 21.4074 66.0031 21.4969 66.0031 21.6074V24.4692C66.0031 24.5797 65.9135 24.6692 65.8031 24.6692H65.4406C65.3301 24.6692 65.2406 24.5797 65.2406 24.4692V23.4683H65.085L64.2502 24.5887C64.2125 24.6394 64.153 24.6692 64.0898 24.6692H63.7096ZM65.2406 22.8485V22.0582H64.7971C64.6156 22.0582 64.4833 22.0814 64.4003 22.1279C64.2758 22.2054 64.2136 22.3139 64.2136 22.4533C64.2136 22.5928 64.2654 22.6987 64.3692 22.771C64.447 22.8227 64.587 22.8485 64.7893 22.8485H65.2406Z" stroke="#151515" stroke-width="0.2"></path> </svg> 